USFL
nRows=116
nColumns=2
inDegrees=yes
endheader
time	med_gas_r	
3.36391	 39.421922	
3.43548	 39.433247	
3.50706	 39.519180	
3.57863	 39.453542	
3.6502	 39.475312	
3.72177	 39.512167	
3.79335	 39.539090	
3.86492	 39.538316	
3.93649	 39.450398	
4.00806	 39.390538	
4.07964	 39.408620	
4.15121	 39.393044	
4.22278	 39.457862	
4.29435	 39.505126	
4.36593	 39.421994	
4.4375	 39.384337	
4.50907	 39.445617	
4.58065	 39.586732	
4.65222	 39.600879	
4.72379	 39.707112	
4.79536	 39.670607	
4.86694	 39.672396	
4.93851	 39.606132	
5.01008	 39.685906	
5.08165	 39.677083	
5.15323	 39.542559	
5.2248	 39.556100	
5.29637	 39.527817	
5.36794	 39.511845	
5.43952	 39.463179	
5.51109	 39.459943	
5.58266	 39.480364	
5.65423	 39.555461	
5.72581	 39.546996	
5.79738	 39.529459	
5.86895	 39.340223	
5.94052	 39.359474	
6.0121	 37.761677	
6.08367	 33.452493	
6.15524	 31.552261	
6.22681	 31.785216	
6.29839	 27.927179	
6.36996	 25.212652	
6.44153	 25.186477	
6.5131	 25.158703	
6.58468	 24.996534	
6.65625	 24.676101	
6.72782	 24.595743	
6.7994	 24.586816	
6.87097	 24.539624	
6.94254	 24.697078	
7.01411	 24.686514	
7.08569	 24.619065	
7.15726	 24.782346	
7.22883	 24.706344	
7.3004	 24.687677	
7.37198	 24.700090	
7.44355	 24.670955	
7.51512	 24.624146	
7.58669	 24.592650	
7.65827	 24.625700	
7.72984	 24.691059	
7.80141	 24.609655	
7.87298	 24.646663	
7.94456	 24.650976	
8.01613	 24.650842	
8.0877	 24.637221	
8.15927	 24.598250	
8.23085	 24.672666	
8.30242	 24.731141	
8.37399	 24.676734	
8.44556	 24.673829	
8.51714	 24.628117	
8.58871	 24.693407	
8.66028	 24.617389	
8.73185	 24.600391	
8.80343	 24.591415	
8.875	 24.609234	
8.94657	 24.642247	
9.01815	 24.624846	
9.08972	 24.667326	
9.16129	 24.641615	
9.23286	 24.703354	
9.30444	 24.498980	
9.37601	 24.569897	
9.44758	 24.588616	
9.51915	 24.600537	
9.59073	 24.634295	
9.6623	 24.655670	
9.73387	 24.625085	
9.80544	 24.635013	
9.87702	 25.040525	
9.94859	 26.058958	
10.0202	 25.902236	
10.0917	 27.007284	
10.1633	 32.132840	
10.2349	 33.039344	
10.3065	 34.276133	
10.378	 34.483664	
10.4496	 34.525071	
10.5212	 34.421083	
10.5927	 34.509798	
10.6643	 35.902578	
10.7359	 35.872114	
10.8075	 35.830205	
10.879	 35.837570	
10.9506	 35.923354	
11.0222	 35.845592	
11.0937	 35.786168	
11.1653	 35.802769	
11.2369	 35.843917	
11.3085	 35.848663	
11.38	 35.944561	
11.4516	 35.922161	
11.5232	 35.822560	
11.5948	 35.962102	
